# xmcd CD database file
# Copyright (C) 1993-1999  Ti Kan
#
# Track frame offsets:
#	150
#	14664
#	29117
#	47738
#	62121
#	78016
#	89098
#	103499
#	116189
#	133508
#	149272
#	166983
#	179033
#	197486
#
# Disc length: 2809 seconds
#
# Revision: 1
# Processed by: cddbd v1.5.1PL0 Copyright (c) Steve Scherf et al.
# Submitted via: xmcd 2.5 PL1
#
DISCID=d30af70e
DTITLE=Lucky Pierres - Cloverleaf
DYEAR=1900
DGENRE=
TTITLE0=Dying on the Vine
TTITLE1=2 a.m. in Provincetown
TTITLE2=Mountain Ballad
TTITLE3=New York City
TTITLE4=Getting Over You
TTITLE5=The Like of Love
TTITLE6=My Temptation
TTITLE7=Mad Dog
TTITLE8=All Because of the Moon
TTITLE9=Manhattan
TTITLE10=House of Austin Stone
TTITLE11=What Else Does She Do Like Me?
TTITLE12=Blue Norther
TTITLE13=New Highway
EXTD=
EXTT0=
EXTT1=
EXTT2=
EXTT3=
EXTT4=
EXTT5=
EXTT6=
EXTT7=
EXTT8=
EXTT9=
EXTT10=
EXTT11=
EXTT12=
EXTT13=
PLAYORDER=
